<svg width="169" height="214" viewBox="0 0 169 214" fill="none" xmlns="http://www.w3.org/2000/svg">
<mask id="path-1-inside-1_79_78" fill="white">
<path d="M0 0H169V214H0V0Z"/>
</mask>
<path d="M0 0H169V214H0V0Z" fill="white"/>
<path d="M0 0V-1H-1V0H0ZM169 0H174V-1H169V0ZM169 214V219H174V214H169ZM0 214H-1V219H0V214ZM0 1H169V-1H0V1ZM164 0V214H174V0H164ZM169 209H0V219H169V209ZM1 214V0H-1V214H1Z" fill="black" mask="url(#path-1-inside-1_79_78)"/>
<path d="M91.5 154C91.571 154.142 91.5845 154.332 91.5 154.56M91.5 154.56C91.1877 155.399 89.5368 156.741 84.5 158C76.5 160 76.709 186.698 83.5 185C91.5 183 91.5 179.619 91.5 154.56ZM65 45C69.3333 45 78.8 48.5 82 62.5M65 27.5C76 27.6667 98 34.9 98 62.5M65 9.50001C80.5 7.50001 112.8 15.3 118 62.5M74 136H78.5C78.8333 136 79.5 135.7 79.5 134.5C79.5 133.3 79.5 130.333 79.5 129C79.6667 126.5 81.2 121.5 86 121.5C90.8 121.5 92 126.833 92 129.5V138.5C92 140.167 90.5 143.9 84.5 145.5C78.5 147.1 75 152.833 74 155.5C73.5 157.333 72.5 162.3 72.5 167.5C72.5 174 71.5 182 74 190C76.5 198 79 200.5 82 200.5C85 200.5 91.5 194.5 91.5 190C92 193.5 93.8 200.5 97 200.5C100.2 200.5 101 198.167 101 197V185C100 185.5 98 186 98 184C98 182 98 144.833 98 126.5C97.8333 119.5 95.2 105.5 86 105.5C74.5 105.5 72.5 126 72.5 136H74ZM104 73.5H111V197H105L104 73.5ZM118 73.5H124.5V197H118V73.5ZM154 133.5C154.167 124.167 152.1 105.5 142.5 105.5C130.5 105.5 130 121.5 130 133.5C130 145.5 131 154 142.5 160C154 166 147.5 189.5 142.5 184C140.167 184.833 135.7 183.1 136.5 169.5H130C129.5 179.833 131.3 200.5 142.5 200.5C156.5 200.5 155 167 155 160C155 153 146 143 140 141.5C135.2 140.3 135.667 130 136.5 125C136.667 123.833 138 121.5 142 121.5C146 121.5 147.333 129.5 147.5 133.5H154Z" stroke="black"/>
<path d="M48.5 107.5H57C64.8 107.5 66.25 103.833 66 102V70.4999C66 64.4999 62 63.3333 60 63.5H38.5C28.8333 63.3333 9.5 76.8 9.5 132C9.5 187.2 28.3089 199.667 37.7134 199H60.5C64.1 199 65.3333 195.333 65.5 193.5V160C65.5 155.6 62.5 154.833 61 155H46C38 155 35.6667 142.215 35.5 135.823V128C35.5 119.5 39.5 113.5 41 110.5C42.2 108.1 44.8333 107.5 46 107.5H48.5Z" fill="url(#paint0_linear_79_78)" stroke="black"/>
<defs>
<linearGradient id="paint0_linear_79_78" x1="42.5" y1="63" x2="37.763" y2="199.025" gradientUnits="userSpaceOnUse">
<stop stop-color="#F5FCEC"/>
<stop offset="0.359375" stop-color="#85E250"/>
<stop offset="0.487141" stop-color="#85E250"/>
<stop offset="0.639678" stop-color="#85E250"/>
<stop offset="0.799201" stop-color="#85E250"/>
<stop offset="0.900903" stop-color="#85E250"/>
<stop offset="1" stop-color="#85E250"/>
</linearGradient>
</defs>
</svg>
